<svg width="400" height="300" viewBox="0 0 400 300" fill="none" xmlns="http://www.w3.org/2000/svg">
  <!-- Program timeline -->
  <line x1="50" y1="150" x2="350" y2="150" stroke="#2563EB" stroke-width="3"/>
  
  <!-- Step 1: Idea -->
  <circle cx="80" cy="150" r="20" fill="#FEF3C7" stroke="#F59E0B" stroke-width="2"/>
  <path d="M75 150 L80 145 L85 150 L80 155 Z" fill="#F59E0B"/>
  <text x="80" y="180" font-family="Arial" font-size="12" text-anchor="middle" fill="#333">Idea</text>
  
  <!-- Step 2: Build -->
  <circle cx="160" cy="150" r="20" fill="#E3F2FD" stroke="#2563EB" stroke-width="2"/>
  <rect x="150" y="145" width="20" height="10" rx="2" fill="#2563EB"/>
  <text x="160" y="180" font-family="Arial" font-size="12" text-anchor="middle" fill="#333">Build</text>
  
  <!-- Step 3: Test -->
  <circle cx="240" cy="150" r="20" fill="#DCFCE7" stroke="#16A34A" stroke-width="2"/>
  <path d="M235 150 L238 153 L245 146" stroke="#16A34A" stroke-width="2" stroke-linecap="round"/>
  <text x="240" y="180" font-family="Arial" font-size="12" text-anchor="middle" fill="#333">Test</text>
  
  <!-- Step 4: Launch -->
  <circle cx="320" cy="150" r="20" fill="#FEE2E2" stroke="#DC2626" stroke-width="2"/>
  <path d="M315 155 L315 145 L325 150 Z" fill="#DC2626"/>
  <text x="320" y="180" font-family="Arial" font-size="12" text-anchor="middle" fill="#333">Launch</text>
  
  <!-- 12 weeks text -->
  <text x="200" y="120" font-family="Arial" font-size="16" font-weight="bold" text-anchor="middle" fill="#1A3B5C">12-Week Program</text>
  
  <!-- Support elements -->
  <rect x="50" y="200" width="300" height="40" rx="8" fill="#F8FAFC" stroke="#E2E8F0" stroke-width="1"/>
  <text x="200" y="220" font-family="Arial" font-size="14" text-anchor="middle" fill="#64748B">Mentorship • Resources • Community • Funding</text>
</svg>